<?xml version="1.0" encoding="utf-8"?>
<!-- Generator: Adobe Illustrator 15.0.0, SVG Export Plug-In . SVG Version: 6.00 Build 0)  -->
<!DOCTYPE svg PUBLIC "-//W3C//DTD SVG 1.1//EN" "http://www.w3.org/Graphics/SVG/1.1/DTD/svg11.dtd">
<svg version="1.1" id="Layer_1" xmlns="http://www.w3.org/2000/svg" xmlns:xlink="http://www.w3.org/1999/xlink" x="0px" y="0px"
	 width="64px" height="64px" viewBox="0 0 64 64" enable-background="new 0 0 64 64" xml:space="preserve">
<path fill="#010202" d="M53.226,14.497c0,0-3.207,2.383-5.865,2.292c0,0-5.685-4.95-11.461-1.374c-5.776,3.574-4.4,9.533-4.4,9.533
	s-7.335,1.926-18.428-9.075c0,0-4.034,6.875,2.659,11.735c0,0-1.65,0.641-3.851-0.643c0,0-0.825,6.511,6.509,8.711
	c0,0-0.458,0.641-3.392,0.458c0,0,1.283,5.912,8.114,5.912c0,0-2.705,4.264-12.973,3.989c0,0,13.752,9.169,27.688,0.183
	C51.761,37.235,49.927,23.3,49.927,23.3s4.034-3.484,4.309-4.769c0,0-4.124,1.192-4.767,1.192
	C49.469,19.724,53.226,17.064,53.226,14.497z"/>
</svg>
